<svg width="30" height="30" viewBox="0 0 30 30" fill="none" xmlns="http://www.w3.org/2000/svg">
<mask id="mask0_1131_1690" style="mask-type:alpha" maskUnits="userSpaceOnUse" x="0" y="0" width="30" height="30">
<rect width="30" height="30" fill="#D9D9D9"/>
</mask>
<g mask="url(#mask0_1131_1690)">
<path d="M7.35136 22.0447C8.58636 21.1734 9.84906 20.5037 11.1395 20.0356C12.4299 19.5677 13.8067 19.3337 15.2698 19.3337C16.7329 19.3337 18.108 19.5677 19.3951 20.0356C20.6822 20.5037 21.9572 21.1734 23.2201 22.0447C24.0709 20.9955 24.6967 19.9196 25.0973 18.8169C25.4979 17.714 25.6982 16.531 25.6982 15.2681C25.6982 12.3579 24.6876 9.89208 22.6664 7.87063C20.6449 5.84938 18.1791 4.83875 15.2689 4.83875C12.3586 4.83875 9.89282 5.84938 7.87136 7.87063C5.85011 9.89208 4.83948 12.3579 4.83948 15.2681C4.83948 16.531 5.04188 17.714 5.44667 18.8169C5.85167 19.9196 6.48657 20.9955 7.35136 22.0447ZM15.266 16.5534C13.9965 16.5534 12.9269 16.1177 12.0573 15.2462C11.1877 14.3748 10.7529 13.3043 10.7529 12.0347C10.7529 10.7651 11.1886 9.69552 12.0601 8.82594C12.9316 7.95614 14.0021 7.52125 15.2717 7.52125C16.5413 7.52125 17.6108 7.95698 18.4804 8.82844C19.35 9.69989 19.7848 10.7704 19.7848 12.04C19.7848 13.3096 19.3491 14.3792 18.4776 15.2487C17.6061 16.1185 16.5356 16.5534 15.266 16.5534ZM15.2785 27.8097C13.5552 27.8097 11.9334 27.4812 10.4132 26.8244C8.89282 26.1675 7.56261 25.2656 6.42261 24.1187C5.28282 22.9721 4.38198 21.6411 3.72011 20.1259C3.05823 18.6107 2.72729 16.9857 2.72729 15.2509C2.72729 13.5439 3.05969 11.9322 3.72448 10.4159C4.38927 8.89948 5.29073 7.56719 6.42886 6.41906C7.56698 5.27115 8.89396 4.36875 10.4098 3.71188C11.9258 3.055 13.5513 2.72656 15.286 2.72656C16.9931 2.72656 18.6048 3.05896 20.121 3.72375C21.6375 4.38854 22.9673 5.29031 24.1104 6.42906C25.2533 7.56802 26.1557 8.89573 26.8176 10.4122C27.4795 11.9284 27.8104 13.5439 27.8104 15.2584C27.8104 16.9818 27.482 18.6035 26.8251 20.1237C26.1682 21.6442 25.2658 22.9729 24.1179 24.11C22.9698 25.2469 21.6381 26.1477 20.1229 26.8125C18.6079 27.4773 16.9931 27.8097 15.2785 27.8097ZM15.2689 25.6975C16.357 25.6975 17.4418 25.526 18.5232 25.1831C19.6047 24.8402 20.6206 24.2919 21.571 23.5381C20.6265 22.8677 19.6171 22.3514 18.5429 21.9891C17.4688 21.627 16.3774 21.4459 15.2689 21.4459C14.1603 21.4459 13.0684 21.6249 11.9932 21.9828C10.9178 22.3407 9.91865 22.8612 8.99573 23.5444C9.92677 24.2885 10.933 24.8334 12.0145 25.1791C13.0959 25.5247 14.1807 25.6975 15.2689 25.6975ZM15.2701 14.4412C15.9476 14.4412 16.5174 14.2098 16.9795 13.7469C17.4416 13.2842 17.6726 12.714 17.6726 12.0362C17.6726 11.3585 17.4413 10.7886 16.9785 10.3266C16.5156 9.86448 15.9453 9.63344 15.2676 9.63344C14.5901 9.63344 14.0203 9.86489 13.5582 10.3278C13.0961 10.7905 12.8651 11.3607 12.8651 12.0384C12.8651 12.7161 13.0965 13.286 13.5592 13.7481C14.0221 14.2102 14.5924 14.4412 15.2701 14.4412Z" fill="#1C1B1F"/>
</g>
</svg>
