<svg width="19" height="20" viewBox="0 0 19 20" fill="none" xmlns="http://www.w3.org/2000/svg">
<path d="M9.12668 11.5775L2.02171 19.2213C1.78728 19.4731 1.51033 19.5994 1.19087 19.6001C0.871639 19.6006 0.590337 19.4621 0.346962 19.1844C0.111379 18.923 -0.000683644 18.6355 0.0107747 18.3219C0.022233 18.0083 0.145754 17.7127 0.381337 17.4351L7.45193 9.82818L0.346962 2.14744C0.120087 1.89564 0.00447269 1.61061 0.000118523 1.29234C-0.00423564 0.973836 0.111379 0.67576 0.346962 0.398112C0.590337 0.136955 0.869462 0.0042833 1.18434 9.88899e-05C1.49921 -0.00408552 1.77834 0.124524 2.02171 0.385927L9.12668 8.02937L16.1629 0.385927C16.3973 0.134124 16.6743 0.00785245 16.9937 0.00711403C17.313 0.00662174 17.5943 0.136955 17.8377 0.398112C18.0732 0.67576 18.1853 0.971498 18.1738 1.28533C18.1624 1.59891 18.0465 1.88628 17.8263 2.14744L10.7554 9.82818L17.8263 17.4351C18.0378 17.6785 18.1515 17.9656 18.1673 18.2964C18.1831 18.627 18.0732 18.923 17.8377 19.1844C17.5943 19.4621 17.3152 19.603 17.0003 19.6072C16.6854 19.6111 16.4063 19.4825 16.1629 19.2213L9.12668 11.5775Z" fill="#1F1F1F"/>
</svg>
