<svg width="26" height="23" viewBox="0 0 26 23" fill="none" xmlns="http://www.w3.org/2000/svg">
<path d="M13.257 22.1584C12.9397 22.1584 12.6356 22.1057 12.3448 22.0003C12.0542 21.8949 11.7918 21.728 11.5576 21.4997L9.70886 19.7947C7.36906 17.6488 5.28719 15.539 3.46323 13.4653C1.63927 11.3915 0.727295 9.16538 0.727295 6.78684C0.727295 4.88621 1.37604 3.29538 2.67354 2.01434C3.97084 0.733294 5.55792 0.0927734 7.43479 0.0927734C8.51375 0.0927734 9.56031 0.347148 10.5745 0.855898C11.5886 1.36486 12.4868 2.13402 13.2689 3.1634C14.0991 2.13402 15.0057 1.36486 15.9889 0.855898C16.972 0.347148 18.0083 0.0927734 19.0979 0.0927734C20.9838 0.0927734 22.574 0.733294 23.8685 2.01434C25.1631 3.29538 25.8104 4.88621 25.8104 6.78684C25.8104 9.18955 24.8749 11.4337 23.0039 13.5193C21.133 15.6052 19.0921 17.6826 16.881 19.7515L14.9632 21.5047C14.7311 21.7313 14.4691 21.8969 14.177 22.0015C13.8851 22.1061 13.5784 22.1584 13.257 22.1584ZM12.3057 5.51746C11.7993 4.56934 11.1124 3.78017 10.2451 3.14996C9.37802 2.51996 8.44625 2.20496 7.44979 2.20496C6.13 2.20496 5.03167 2.63361 4.15479 3.4909C3.27792 4.3484 2.83948 5.45069 2.83948 6.79777C2.83948 7.86944 3.17354 8.98767 3.84167 10.1525C4.51 11.3173 5.35365 12.4735 6.37261 13.6212C7.39157 14.7689 8.49531 15.883 9.68386 16.9634C10.8724 18.0438 11.9798 19.0477 13.006 19.975C13.0781 20.0443 13.1623 20.079 13.2585 20.079C13.3546 20.079 13.4386 20.0443 13.5107 19.975C14.537 19.0423 15.6444 18.0336 16.8329 16.949C18.0215 15.8642 19.1279 14.7483 20.1523 13.6012C21.1767 12.4539 22.0238 11.3013 22.6935 10.1434C23.3633 8.98548 23.6982 7.8685 23.6982 6.79246C23.6982 5.44892 23.2615 4.3484 22.3879 3.4909C21.5142 2.63361 20.4134 2.20496 19.0857 2.20496C18.0828 2.20496 17.141 2.51788 16.2604 3.14371C15.3798 3.76954 14.6951 4.5608 14.2064 5.51746C14.1107 5.7108 13.9794 5.85673 13.8123 5.95527C13.6454 6.05381 13.4668 6.10309 13.2764 6.10309C13.0859 6.10309 12.9022 6.05381 12.7251 5.95527C12.548 5.85673 12.4082 5.7108 12.3057 5.51746Z" fill="#1C1B1F"/>
</svg>
