<svg width="23" height="23" viewBox="0 0 23 23" fill="none" xmlns="http://www.w3.org/2000/svg">
<path d="M8.21057 16.2546C5.9264 16.2546 4.00213 15.4726 2.43776 13.9084C0.873173 12.3444 0.0908813 10.4329 0.0908813 8.17371C0.0908813 5.91475 0.872965 4.00319 2.43713 2.43902C4.00109 0.874855 5.91067 0.0927734 8.16588 0.0927734C10.4211 0.0927734 12.334 0.874855 13.9046 2.43902C15.4753 4.00319 16.2606 5.91486 16.2606 8.17402C16.2606 9.07611 16.1194 9.94944 15.8371 10.794C15.5548 11.6386 15.1413 12.3992 14.5965 13.0759L21.9424 20.3884C22.1487 20.5884 22.2538 20.8408 22.2578 21.1456C22.2617 21.4502 22.1566 21.7048 21.9424 21.9093C21.7283 22.1139 21.4754 22.2162 21.1837 22.2162C20.892 22.2162 20.6402 22.1091 20.4281 21.895L13.134 14.6009C12.4973 15.1328 11.738 15.5413 10.8559 15.8265C9.97359 16.1119 9.09182 16.2546 8.21057 16.2546ZM8.17807 14.1425C9.86015 14.1425 11.2758 13.568 12.4249 12.419C13.5739 11.2699 14.1484 9.85475 14.1484 8.17371C14.1484 6.49267 13.5745 5.07767 12.4268 3.92871C11.2789 2.77954 9.86328 2.20496 8.17994 2.20496C6.48953 2.20496 5.07078 2.77954 3.92369 3.92871C2.77661 5.07767 2.20307 6.49267 2.20307 8.17371C2.20307 9.85475 2.77661 11.2699 3.92369 12.419C5.07078 13.568 6.4889 14.1425 8.17807 14.1425Z" fill="#1C1B1F"/>
</svg>
