<svg width="21" height="26" viewBox="0 0 21 26" fill="none" xmlns="http://www.w3.org/2000/svg">
<path d="M2.95143 25.8099C2.27393 25.8099 1.68841 25.5632 1.19487 25.0696C0.70133 24.5761 0.454559 23.9906 0.454559 23.3131V8.34837C0.454559 7.67108 0.70133 7.08566 1.19487 6.59212C1.68841 6.09858 2.27393 5.85181 2.95143 5.85181H5.7005V5.38712C5.7005 4.06754 6.16571 2.96097 7.09612 2.06743C8.02654 1.17368 9.15935 0.726807 10.4946 0.726807C11.8296 0.726807 12.9663 1.17368 13.9049 2.06743C14.8434 2.96097 15.3127 4.06754 15.3127 5.38712V5.85181H18.0408C18.7183 5.85181 19.3038 6.09858 19.7974 6.59212C20.2909 7.08566 20.5377 7.67108 20.5377 8.34837V23.3131C20.5377 23.9906 20.2909 24.5761 19.7974 25.0696C19.3038 25.5632 18.7183 25.8099 18.0408 25.8099H2.95143ZM2.95143 23.6977H18.0408C18.1371 23.6977 18.2253 23.6577 18.3055 23.5777C18.3855 23.4975 18.4255 23.4093 18.4255 23.3131V8.34837C18.4255 8.25233 18.3855 8.1642 18.3055 8.08399C18.2253 8.00399 18.1371 7.96399 18.0408 7.96399H15.3127V10.6474C15.3127 10.9466 15.2075 11.1992 14.9971 11.4052C14.7866 11.6111 14.5351 11.714 14.2424 11.714C13.9555 11.714 13.7102 11.6111 13.5064 11.4052C13.3025 11.1992 13.2005 10.9466 13.2005 10.6474V7.96399H7.81269V10.6474C7.81269 10.9466 7.70748 11.1992 7.49706 11.4052C7.28664 11.6111 7.03508 11.714 6.74237 11.714C6.4555 11.714 6.21018 11.6111 6.00643 11.4052C5.80248 11.1992 5.7005 10.9466 5.7005 10.6474V7.96399H2.95143C2.85518 7.96399 2.76696 8.00399 2.68675 8.08399C2.60675 8.1642 2.56675 8.25233 2.56675 8.34837V23.3131C2.56675 23.4093 2.60675 23.4975 2.68675 23.5777C2.76696 23.6577 2.85518 23.6977 2.95143 23.6977ZM7.81269 5.85181H13.2005V5.38712C13.2005 4.65941 12.9363 4.05274 12.408 3.56712C11.8797 3.0817 11.2419 2.83899 10.4946 2.83899C9.74727 2.83899 9.11341 3.0817 8.593 3.56712C8.07279 4.05274 7.81269 4.65941 7.81269 5.38712V5.85181Z" fill="#1C1B1F"/>
</svg>
